<!--?xml version="1.0" encoding="UTF-8" standalone="no"?-->
<svg xmlns:svg="http://www.w3.org/2000/svg" xmlns="http://www.w3.org/2000/svg" id="committed" viewBox="0 0 512 512" version="1.1" width="100%" height="100%">
  <path class="commit" id="commit" style="fill: rgb(255, 187, 0); stroke: rgb(255, 187, 0); stroke-width: 4; stroke-miterlimit: 4; stroke-opacity: 1; opacity: 1; fill-opacity: 1;" d="m 215.24023,77.759766 c -0.86793,3.559269 -7.53899,2.57202 -10.80273,4.425781 -57.90004,16.73236 -105.79344,64.482043 -122.607422,122.208983 -17.5158,57.07629 -4.329509,122.37307 34.548832,168.19727 25.34117,30.43657 60.34849,52.04734 98.86132,60.88867 0,25.57682 0,51.15364 0,76.73047 27.17318,0 54.34636,0 81.51954,0 0,-25.57617 0,-51.15235 0,-76.72852 61.23111,-13.63363 113.39337,-61.47643 132.24804,-121.44336 18.80388,-57.0483 6.76303,-122.97299 -31.6917,-169.71279 -25.29016,-31.40612 -61.28726,-54.014662 -100.59541,-62.998145 0,-25.705729 0,-51.411458 0,-77.1171875 -27.16015,0 -54.32031,0 -81.48047,0 0,25.1829425 0,50.3658855 0,75.5488285 z m 36.69336,78.515624 c 39.60467,-1.953 78.90139,21.96201 95.02192,58.24385 17.61557,36.82473 9.20999,83.8578 -19.93656,112.40638 -27.5699,28.49632 -72.69089,37.62359 -109.18246,22.09034 -37.15213,-14.82672 -62.90758,-53.60687 -61.96687,-93.62558 -0.13592,-40.34612 26.84158,-78.95228 64.7887,-92.68138 9.99086,-3.84138 20.60337,-5.83709 31.27527,-6.43361 z"></path>
</svg>
